<?xml version="1.0" encoding="UTF-8"?><svg xmlns="http://www.w3.org/2000/svg" xmlns:xlink="http://www.w3.org/1999/xlink" fill-opacity="1" color-rendering="auto" color-interpolation="auto" text-rendering="auto" stroke="black" stroke-linecap="square" width="295" stroke-miterlimit="10" shape-rendering="auto" stroke-opacity="1" fill="black" stroke-dasharray="none" font-weight="normal" stroke-width="1" height="320" font-family="'Dialog'" font-style="normal" stroke-linejoin="miter" font-size="12px" stroke-dashoffset="0" image-rendering="auto">
  <!--Generated by ySVG 2.5-->
  <defs id="genericDefs"/>
  <g>
    <defs id="defs1">
      <clipPath clipPathUnits="userSpaceOnUse" id="clipPath1">
        <path d="M0 0 L295 0 L295 320 L0 320 L0 0 Z"/>
      </clipPath>
      <clipPath clipPathUnits="userSpaceOnUse" id="clipPath2">
        <path d="M84 -44 L379 -44 L379 276 L84 276 L84 -44 Z"/>
      </clipPath>
    </defs>
    <g fill="white" text-rendering="geometricPrecision" shape-rendering="geometricPrecision" transform="translate(-84,44)" stroke="white">
      <rect x="84" width="295" height="320" y="-44" clip-path="url(#clipPath2)" stroke="none"/>
    </g>
    <g fill="rgb(51,153,102)" text-rendering="geometricPrecision" shape-rendering="geometricPrecision" transform="matrix(1,0,0,1,-84,44)" stroke="rgb(51,153,102)">
      <rect x="169" width="30" height="30" y="140" clip-path="url(#clipPath2)" stroke="none"/>
    </g>
    <g text-rendering="geometricPrecision" stroke-miterlimit="1.45" shape-rendering="geometricPrecision" transform="matrix(1,0,0,1,-84,44)" stroke-linecap="butt">
      <rect fill="none" x="169" width="30" height="30" y="140" clip-path="url(#clipPath2)"/>
      <text x="180.1826" xml:space="preserve" y="159.1543" clip-path="url(#clipPath2)" font-family="sans-serif" stroke="none">1</text>
    </g>
    <g fill="rgb(51,153,102)" text-rendering="geometricPrecision" shape-rendering="geometricPrecision" transform="matrix(1,0,0,1,-84,44)" stroke="rgb(51,153,102)">
      <rect x="199" width="30" height="30" y="140" clip-path="url(#clipPath2)" stroke="none"/>
    </g>
    <g text-rendering="geometricPrecision" stroke-miterlimit="1.45" shape-rendering="geometricPrecision" transform="matrix(1,0,0,1,-84,44)" stroke-linecap="butt">
      <rect fill="none" x="199" width="30" height="30" y="140" clip-path="url(#clipPath2)"/>
      <text x="210.1826" xml:space="preserve" y="159.1543" clip-path="url(#clipPath2)" font-family="sans-serif" stroke="none">2</text>
    </g>
    <g fill="rgb(51,153,102)" text-rendering="geometricPrecision" shape-rendering="geometricPrecision" transform="matrix(1,0,0,1,-84,44)" stroke="rgb(51,153,102)">
      <rect x="229" width="30" height="30" y="140" clip-path="url(#clipPath2)" stroke="none"/>
    </g>
    <g text-rendering="geometricPrecision" stroke-miterlimit="1.45" shape-rendering="geometricPrecision" transform="matrix(1,0,0,1,-84,44)" stroke-linecap="butt">
      <rect fill="none" x="229" width="30" height="30" y="140" clip-path="url(#clipPath2)"/>
      <text x="240.1826" xml:space="preserve" y="159.1543" clip-path="url(#clipPath2)" font-family="sans-serif" stroke="none">3</text>
    </g>
    <g fill="rgb(51,153,102)" text-rendering="geometricPrecision" shape-rendering="geometricPrecision" transform="matrix(1,0,0,1,-84,44)" stroke="rgb(51,153,102)">
      <rect x="259" width="30" height="30" y="140" clip-path="url(#clipPath2)" stroke="none"/>
    </g>
    <g text-rendering="geometricPrecision" stroke-miterlimit="1.45" shape-rendering="geometricPrecision" transform="matrix(1,0,0,1,-84,44)" stroke-linecap="butt">
      <rect fill="none" x="259" width="30" height="30" y="140" clip-path="url(#clipPath2)"/>
      <text x="270.1826" xml:space="preserve" y="159.1543" clip-path="url(#clipPath2)" font-family="sans-serif" stroke="none">4</text>
    </g>
    <g fill="rgb(51,153,102)" text-rendering="geometricPrecision" shape-rendering="geometricPrecision" transform="matrix(1,0,0,1,-84,44)" stroke="rgb(51,153,102)">
      <rect x="289" width="30" height="30" y="140" clip-path="url(#clipPath2)" stroke="none"/>
    </g>
    <g text-rendering="geometricPrecision" stroke-miterlimit="1.45" shape-rendering="geometricPrecision" transform="matrix(1,0,0,1,-84,44)" stroke-linecap="butt">
      <rect fill="none" x="289" width="30" height="30" y="140" clip-path="url(#clipPath2)"/>
      <text x="300.1826" xml:space="preserve" y="159.1543" clip-path="url(#clipPath2)" font-family="sans-serif" stroke="none">5</text>
    </g>
    <g fill="rgb(51,153,102)" text-rendering="geometricPrecision" shape-rendering="geometricPrecision" transform="matrix(1,0,0,1,-84,44)" stroke="rgb(51,153,102)">
      <rect x="169" width="30" height="30" y="170" clip-path="url(#clipPath2)" stroke="none"/>
    </g>
    <g text-rendering="geometricPrecision" stroke-miterlimit="1.45" shape-rendering="geometricPrecision" transform="matrix(1,0,0,1,-84,44)" stroke-linecap="butt">
      <rect fill="none" x="169" width="30" height="30" y="170" clip-path="url(#clipPath2)"/>
      <text x="176.1895" xml:space="preserve" y="189.1543" clip-path="url(#clipPath2)" font-family="sans-serif" stroke="none">'H'</text>
    </g>
    <g fill="rgb(51,153,102)" text-rendering="geometricPrecision" shape-rendering="geometricPrecision" transform="matrix(1,0,0,1,-84,44)" stroke="rgb(51,153,102)">
      <rect x="199" width="30" height="30" y="170" clip-path="url(#clipPath2)" stroke="none"/>
    </g>
    <g text-rendering="geometricPrecision" stroke-miterlimit="1.45" shape-rendering="geometricPrecision" transform="matrix(1,0,0,1,-84,44)" stroke-linecap="butt">
      <rect fill="none" x="199" width="30" height="30" y="170" clip-path="url(#clipPath2)"/>
      <text x="206.5967" xml:space="preserve" y="189.1543" clip-path="url(#clipPath2)" font-family="sans-serif" stroke="none">'A'</text>
    </g>
    <g fill="rgb(51,153,102)" text-rendering="geometricPrecision" shape-rendering="geometricPrecision" transform="matrix(1,0,0,1,-84,44)" stroke="rgb(51,153,102)">
      <rect x="229" width="30" height="30" y="170" clip-path="url(#clipPath2)" stroke="none"/>
    </g>
    <g text-rendering="geometricPrecision" stroke-miterlimit="1.45" shape-rendering="geometricPrecision" transform="matrix(1,0,0,1,-84,44)" stroke-linecap="butt">
      <rect fill="none" x="229" width="30" height="30" y="170" clip-path="url(#clipPath2)"/>
      <text x="237.3584" xml:space="preserve" y="189.1543" clip-path="url(#clipPath2)" font-family="sans-serif" stroke="none">'L'</text>
    </g>
    <g fill="rgb(51,153,102)" text-rendering="geometricPrecision" shape-rendering="geometricPrecision" transform="matrix(1,0,0,1,-84,44)" stroke="rgb(51,153,102)">
      <rect x="259" width="30" height="30" y="170" clip-path="url(#clipPath2)" stroke="none"/>
    </g>
    <g text-rendering="geometricPrecision" stroke-miterlimit="1.45" shape-rendering="geometricPrecision" transform="matrix(1,0,0,1,-84,44)" stroke-linecap="butt">
      <rect fill="none" x="259" width="30" height="30" y="170" clip-path="url(#clipPath2)"/>
      <text x="267.3584" xml:space="preserve" y="189.1543" clip-path="url(#clipPath2)" font-family="sans-serif" stroke="none">'L'</text>
    </g>
    <g fill="rgb(51,153,102)" text-rendering="geometricPrecision" shape-rendering="geometricPrecision" transform="matrix(1,0,0,1,-84,44)" stroke="rgb(51,153,102)">
      <rect x="289" width="30" height="30" y="170" clip-path="url(#clipPath2)" stroke="none"/>
    </g>
    <g text-rendering="geometricPrecision" stroke-miterlimit="1.45" shape-rendering="geometricPrecision" transform="matrix(1,0,0,1,-84,44)" stroke-linecap="butt">
      <rect fill="none" x="289" width="30" height="30" y="170" clip-path="url(#clipPath2)"/>
      <text x="295.9785" xml:space="preserve" y="189.1543" clip-path="url(#clipPath2)" font-family="sans-serif" stroke="none">'O'</text>
    </g>
    <g fill="rgb(51,153,102)" text-rendering="geometricPrecision" shape-rendering="geometricPrecision" transform="matrix(1,0,0,1,-84,44)" stroke="rgb(51,153,102)">
      <rect x="319" width="30" height="30" y="140" clip-path="url(#clipPath2)" stroke="none"/>
    </g>
    <g text-rendering="geometricPrecision" stroke-miterlimit="1.45" shape-rendering="geometricPrecision" transform="matrix(1,0,0,1,-84,44)" stroke-linecap="butt">
      <rect fill="none" x="319" width="30" height="30" y="140" clip-path="url(#clipPath2)"/>
      <text x="330.1826" xml:space="preserve" y="159.1543" clip-path="url(#clipPath2)" font-family="sans-serif" stroke="none">6</text>
    </g>
    <g fill="rgb(51,153,102)" text-rendering="geometricPrecision" shape-rendering="geometricPrecision" transform="matrix(1,0,0,1,-84,44)" stroke="rgb(51,153,102)">
      <rect x="319" width="30" height="30" y="170" clip-path="url(#clipPath2)" stroke="none"/>
    </g>
    <g text-rendering="geometricPrecision" stroke-miterlimit="1.45" shape-rendering="geometricPrecision" transform="matrix(1,0,0,1,-84,44)" stroke-linecap="butt">
      <rect fill="none" x="319" width="30" height="30" y="170" clip-path="url(#clipPath2)"/>
      <text x="318.9971" xml:space="preserve" y="189.1543" clip-path="url(#clipPath2)" font-family="sans-serif" stroke="none">0x00</text>
    </g>
    <g fill="rgb(51,153,102)" text-rendering="geometricPrecision" shape-rendering="geometricPrecision" transform="matrix(1,0,0,1,-84,44)" stroke="rgb(51,153,102)">
      <rect x="99" width="70" height="30" y="140" clip-path="url(#clipPath2)" stroke="none"/>
    </g>
    <g text-rendering="geometricPrecision" stroke-miterlimit="1.45" shape-rendering="geometricPrecision" transform="matrix(1,0,0,1,-84,44)" stroke-linecap="butt">
      <rect fill="none" x="99" width="70" height="30" y="140" clip-path="url(#clipPath2)"/>
      <text x="109.8682" xml:space="preserve" y="159.1543" clip-path="url(#clipPath2)" font-family="sans-serif" stroke="none">Address</text>
    </g>
    <g fill="rgb(51,153,102)" text-rendering="geometricPrecision" shape-rendering="geometricPrecision" transform="matrix(1,0,0,1,-84,44)" stroke="rgb(51,153,102)">
      <rect x="99" width="70" height="30" y="170" clip-path="url(#clipPath2)" stroke="none"/>
    </g>
    <g text-rendering="geometricPrecision" stroke-miterlimit="1.45" shape-rendering="geometricPrecision" transform="matrix(1,0,0,1,-84,44)" stroke-linecap="butt">
      <rect fill="none" x="99" width="70" height="30" y="170" clip-path="url(#clipPath2)"/>
      <text x="110.1377" xml:space="preserve" y="189.1543" clip-path="url(#clipPath2)" font-family="sans-serif" stroke="none">Content</text>
    </g>
    <g fill="rgb(51,153,102)" text-rendering="geometricPrecision" shape-rendering="geometricPrecision" transform="matrix(1,0,0,1,-84,44)" stroke="rgb(51,153,102)">
      <rect x="169" width="30" height="30" y="-28.24" clip-path="url(#clipPath2)" stroke="none"/>
    </g>
    <g text-rendering="geometricPrecision" stroke-miterlimit="1.45" shape-rendering="geometricPrecision" transform="matrix(1,0,0,1,-84,44)" stroke-linecap="butt">
      <rect fill="none" x="169" width="30" height="30" y="-28.24" clip-path="url(#clipPath2)"/>
      <text x="168.8066" xml:space="preserve" y="-9.0857" clip-path="url(#clipPath2)" font-family="sans-serif" stroke="none">Hallo</text>
    </g>
    <g fill="rgb(51,153,102)" text-rendering="geometricPrecision" shape-rendering="geometricPrecision" transform="matrix(1,0,0,1,-84,44)" stroke="rgb(51,153,102)">
      <rect x="169" width="30" height="30" y="1.76" clip-path="url(#clipPath2)" stroke="none"/>
    </g>
    <g text-rendering="geometricPrecision" stroke-miterlimit="1.45" shape-rendering="geometricPrecision" transform="matrix(1,0,0,1,-84,44)" stroke-linecap="butt">
      <rect fill="none" x="169" width="30" height="30" y="1.76" clip-path="url(#clipPath2)"/>
      <text x="180.1826" xml:space="preserve" y="20.9143" clip-path="url(#clipPath2)" font-family="sans-serif" stroke="none">1</text>
    </g>
    <g fill="rgb(51,153,102)" text-rendering="geometricPrecision" shape-rendering="geometricPrecision" transform="matrix(1,0,0,1,-84,44)" stroke="rgb(51,153,102)">
      <rect x="99" width="70" height="30" y="1.76" clip-path="url(#clipPath2)" stroke="none"/>
    </g>
    <g text-rendering="geometricPrecision" stroke-miterlimit="1.45" shape-rendering="geometricPrecision" transform="matrix(1,0,0,1,-84,44)" stroke-linecap="butt">
      <rect fill="none" x="99" width="70" height="30" y="1.76" clip-path="url(#clipPath2)"/>
      <text x="110.1377" xml:space="preserve" y="20.9143" clip-path="url(#clipPath2)" font-family="sans-serif" stroke="none">Content</text>
    </g>
    <g fill="rgb(51,153,102)" text-rendering="geometricPrecision" shape-rendering="geometricPrecision" transform="matrix(1,0,0,1,-84,44)" stroke="rgb(51,153,102)">
      <rect x="99" width="70" height="30" y="-28.24" clip-path="url(#clipPath2)" stroke="none"/>
    </g>
    <g text-rendering="geometricPrecision" stroke-miterlimit="1.45" shape-rendering="geometricPrecision" transform="matrix(1,0,0,1,-84,44)" stroke-linecap="butt">
      <rect fill="none" x="99" width="70" height="30" y="-28.24" clip-path="url(#clipPath2)"/>
      <text x="104.1436" xml:space="preserve" y="-9.0857" clip-path="url(#clipPath2)" font-family="sans-serif" stroke="none">Var Name</text>
    </g>
    <g fill="rgb(51,153,102)" text-rendering="geometricPrecision" shape-rendering="geometricPrecision" transform="matrix(1,0,0,1,-84,44)" stroke="rgb(51,153,102)">
      <rect x="229" width="120" height="139.52" y="-28.88" clip-path="url(#clipPath2)" stroke="none"/>
    </g>
    <g text-rendering="geometricPrecision" stroke-miterlimit="1.45" shape-rendering="geometricPrecision" transform="matrix(1,0,0,1,-84,44)" stroke-linecap="butt">
      <rect fill="none" x="229" width="120" height="139.52" y="-28.88" clip-path="url(#clipPath2)"/>
      <text x="248.7197" xml:space="preserve" y="-3.8563" clip-path="url(#clipPath2)" font-family="sans-serif" stroke="none">char * Hallo=</text>
      <text x="258.6543" xml:space="preserve" y="10.1124" clip-path="url(#clipPath2)" font-family="sans-serif" stroke="none">malloc(6);</text>
      <text x="242.4209" xml:space="preserve" y="24.0812" clip-path="url(#clipPath2)" font-family="sans-serif" stroke="none">*(Hallo+0)='H';</text>
      <text x="242.8281" xml:space="preserve" y="38.0499" clip-path="url(#clipPath2)" font-family="sans-serif" stroke="none">*(Hallo+1)='A';</text>
      <text x="243.5898" xml:space="preserve" y="52.0187" clip-path="url(#clipPath2)" font-family="sans-serif" stroke="none">*(Hallo+2)='L';</text>
      <text x="243.5898" xml:space="preserve" y="65.9874" clip-path="url(#clipPath2)" font-family="sans-serif" stroke="none">*(Hallo+3)='L';</text>
      <text x="242.21" xml:space="preserve" y="79.9562" clip-path="url(#clipPath2)" font-family="sans-serif" stroke="none">*(Hallo+4)='O';</text>
      <text x="246.4141" xml:space="preserve" y="93.9249" clip-path="url(#clipPath2)" font-family="sans-serif" stroke="none">*(Hallo+5)=0;</text>
      <text x="200.3242" xml:space="preserve" y="249.1543" clip-path="url(#clipPath2)" font-family="sans-serif" stroke="none">String Content</text>
      <text x="308.4443" xml:space="preserve" y="242.1699" clip-path="url(#clipPath2)" font-family="sans-serif" stroke="none">Endmar-</text>
      <text x="311.2861" xml:space="preserve" y="256.1387" clip-path="url(#clipPath2)" font-family="sans-serif" stroke="none">kierung</text>
      <path fill="none" d="M184 31.76 L184 132" clip-path="url(#clipPath2)"/>
      <path d="M184 140 L189 128 L184 131 L179 128 Z" clip-path="url(#clipPath2)" stroke="none"/>
      <path fill="none" d="M244 230 L244 221.64 L244 216.52 L184 216.52 L184 200" clip-path="url(#clipPath2)"/>
      <path fill="none" d="M244 230 L244 217.16 L244 216.52 L304 217.16 L304 200" clip-path="url(#clipPath2)"/>
      <path fill="none" d="M334 230 L334 200" clip-path="url(#clipPath2)"/>
    </g>
  </g>
</svg>
